<svg xmlns="http://www.w3.org/2000/svg" id="Service_illust" width="290.198" height="243" viewBox="0 0 290.198 243">
    <defs>
        <style>
            .cls-3{stroke:#fff}.cls-3,.cls-4,.cls-5,.cls-8,.cls-9{stroke-miterlimit:10}.cls-3,.cls-4,.cls-5,.cls-7,.cls-8{stroke-width:.75px}.cls-4{fill:#fff}.cls-4,.cls-5,.cls-7,.cls-8,.cls-9{stroke:#000}.cls-5,.cls-7,.cls-8{fill:none}.cls-5,.cls-7{stroke-linecap:round}.cls-6{fill:#f2f2f2}.cls-7{stroke-linejoin:round}.cls-9{stroke-width:2px}
        </style>
    </defs>
    <g id="그룹_69549" transform="translate(9.313 8.236)">
        <circle id="타원_64496" cx="76.335" cy="76.335" r="76.335" fill="#226bef" transform="translate(22.215 44.896)"/>
        <path id="패스_3786" d="M836.649 246.839l-24.336 14.836-16.65-5.042c-5.282-1.18-15.075 2.875-16.231 8.265l-.2.256c-1.157 5.391.871 10.463 6.153 11.642l22.833 5.345a9.575 9.575 0 0 0 6.576-.879c.312-.124 1.48-.784 1.785-.944l27.169-18.19" class="cls-3" transform="translate(-752.706 -222.534)"/>
        <g id="그룹_69393" transform="translate(84.223 14.699)">
            <path id="패스_3787" d="M873.39 238.873a2.09 2.09 0 0 0 .2-2.711 1.773 1.773 0 0 0-2-.634c-1.559.313-4.607 2.4-5.44 2.994-1.542 1.1-5.219 3.244-5.219 3.244s.141-8-2.5-7.562c-2.134.351-3.1 11.807-3.1 11.807l7.067 14.435s5.2-3.25 8.311-5.33c1.948-1.3 5.6-3.82 6.326-4.495.022-.015.046-.025.068-.041a2.089 2.089 0 0 0 .45-2.776 1.788 1.788 0 0 0-1.913-.79 4.485 4.485 0 0 0 .684-.575 2.089 2.089 0 0 0 .327-2.661 1.784 1.784 0 0 0-1.964-.772c.039-.058.117-.178.21-.345a2.087 2.087 0 0 0 .327-2.661 1.776 1.776 0 0 0-2.066-.736h-.028a4.085 4.085 0 0 0 .26-.391z" class="cls-4" transform="translate(-855.322 -234.188)"/>
            <path id="선_2298" d="M7.037 0L0 4.672" class="cls-5" transform="translate(10.772 5.043)"/>
            <path id="선_2299" d="M7.043 0L0 4.506" class="cls-5" transform="translate(12.44 8.603)"/>
            <path id="선_2300" d="M7.043 0L0 4.506" class="cls-5" transform="translate(13.505 12.747)"/>
        </g>
        <path id="패스_3788" d="M767.478 313.334l-2.409 29.566 3.305 53.087-17.326 36.907 21.047 6.682L793.1 399.2l2.857-45.605.434-.628 14.236 39.119-2.74 49.054 22.235-.377 5.21-56.544s-12.462-39.889-25.7-73.258c-1.762-4.442-4.61.123-17.412.337a237.411 237.411 0 0 0-24.742 2.036z" class="cls-6" transform="translate(-745.998 -237.504)"/>
        <path id="패스_3789" d="M771.468 337.849a12.127 12.127 0 0 0 9.1-12.992" class="cls-7" transform="translate(-750.913 -241.315)"/>
        <path id="패스_3790" d="M825.912 485.321l.483 17.409H867.5l-.484-8.221-21.277-11.609z" class="cls-6" transform="translate(-764.019 -279.36)"/>
        <g id="그룹_69394" transform="translate(0 194.312)">
            <path id="패스_3791" d="M749.845 470.745l-5.445 17.927 27.438 13.628 10.8-2.059 1.232-11.508-9.353-1.916-5.682-10.3z" class="cls-6" transform="translate(-744.397 -470.745)"/>
            <path id="선_2301" d="M19.287 5.277L0 0" class="cls-8" transform="translate(5.154 2.016)"/>
        </g>
        <path id="선_2302" d="M19.901 0L0 0.364" class="cls-8" transform="translate(61.819 203.544)"/>
        <g id="그룹_69397" transform="translate(141.954 56.761)">
            <path id="패스_3792" d="M970.177 304.239a23.226 23.226 0 1 1-23.226 23.226 23.226 23.226 0 0 1 23.226-23.222m0-5.736a28.961 28.961 0 1 0 28.961 28.961 28.991 28.991 0 0 0-28.961-28.968z" class="cls-9" transform="translate(-933.729 -291.732)"/>
            <path id="사각형_2618" d="M0 0H6.788V7.146H0z" class="cls-9" transform="translate(32.16 0)"/>
            <path id="사각형_2619" d="M0 0H7.146V6.788H0z" class="cls-9" transform="translate(47.378 9.018) rotate(-59)"/>
            <path id="사각형_2620" d="M0 0H7.146V6.788H0z" class="cls-9" transform="matrix(0.875, -0.485, 0.485, 0.875, 59.268, 18.06)"/>
            <path id="사각형_2621" d="M0 0H6.788V7.146H0z" class="cls-9" transform="matrix(0.53, -0.848, 0.848, 0.53, 59.366, 52.881)"/>
            <path id="사각형_2622" d="M0 0H6.788V7.146H0z" class="cls-9" transform="matrix(0.485, -0.875, 0.875, 0.485, 4.089, 20.536)"/>
            <path id="사각형_2623" d="M0 0H7.146V6.788H0z" class="cls-9" transform="matrix(0.848, -0.53, 0.53, 0.848, 3.873, 50.91)"/>
            <path id="사각형_2624" d="M0 0H6.788V7.146H0z" class="cls-9" transform="translate(16.02 6.39) rotate(-31)"/>
            <path id="사각형_2625" d="M0 0H6.788V7.146H0z" class="cls-9" transform="translate(32.16 64.316)"/>
            <path id="사각형_2626" d="M0 0H6.788V7.146H0z" class="cls-9" transform="translate(47.376 62.441) rotate(-31)"/>
            <path id="사각형_2627" d="M0 0H7.146V6.788H0z" class="cls-9" transform="translate(16.019 65.068) rotate(-59)"/>
            <path id="사각형_2628" d="M0 0H8.219V6.073H0z" class="cls-9" transform="translate(0 32.872)"/>
            <path id="사각형_2629" d="M0 0H8.219V6.073H0z" class="cls-9" transform="translate(64.677 32.872)"/>
        </g>
        <g id="그룹_69398" transform="translate(82.915 10.551)">
            <path id="패스_3793" d="M892.42 243.379a23.226 23.226 0 1 1-23.226 23.221 23.226 23.226 0 0 1 23.226-23.223m0-5.736a28.962 28.962 0 1 0 28.962 28.959 28.993 28.993 0 0 0-28.962-28.957z" class="cls-9" transform="translate(-855.972 -230.872)"/>
            <path id="사각형_2630" d="M0 0H6.788V7.146H0z" class="cls-9" transform="translate(32.16)"/>
            <path id="사각형_2631" d="M0 0H7.146V6.788H0z" class="cls-9" transform="translate(47.378 9.018) rotate(-59)"/>
            <path id="사각형_2632" d="M0 0H7.146V6.788H0z" class="cls-9" transform="matrix(0.875, -0.485, 0.485, 0.875, 59.268, 18.06)"/>
            <path id="사각형_2633" d="M0 0H6.788V7.146H0z" class="cls-9" transform="matrix(0.53, -0.848, 0.848, 0.53, 59.366, 52.881)"/>
            <path id="사각형_2634" d="M0 0H6.788V7.146H0z" class="cls-9" transform="matrix(0.485, -0.875, 0.875, 0.485, 4.089, 20.536)"/>
            <path id="사각형_2635" d="M0 0H7.146V6.788H0z" class="cls-9" transform="matrix(0.848, -0.53, 0.53, 0.848, 3.873, 50.91)"/>
            <path id="사각형_2636" d="M0 0H6.788V7.146H0z" class="cls-9" transform="translate(16.02 6.39) rotate(-31)"/>
            <path id="사각형_2637" d="M0 0H6.788V7.146H0z" class="cls-9" transform="translate(32.16 64.316)"/>
            <path id="사각형_2638" d="M0 0H6.788V7.146H0z" class="cls-9" transform="translate(47.376 62.441) rotate(-31)"/>
            <path id="사각형_2639" d="M0 0H7.146V6.788H0z" class="cls-9" transform="translate(16.019 65.068) rotate(-59)"/>
            <path id="사각형_2640" d="M0 0H8.219V6.073H0z" class="cls-9" transform="translate(0 32.872)"/>
            <path id="사각형_2641" d="M0 0H8.219V6.073H0z" class="cls-9" transform="translate(64.677 32.872)"/>
        </g>
        <path id="패스_3794" d="M765.082 284.9a21.754 21.754 0 0 1 42.744-8.065h.012l5.246 21.929-43.163 8.036-4.851-21.9z" transform="translate(-749.305 -225.6)"/>
        <path id="패스_3795" d="M770.732 230.01s-5.55.44-5.184 5.714c.49 7.064 7.623 6.594 7.623 6.594l.91-5.281.261-1.658z" transform="translate(-749.484 -218.483)"/>
        <path id="패스_3796" fill="#fff" stroke="#000" stroke-linecap="round" stroke-linejoin="round" stroke-width="0.75px" d="M792.976 253.541a.3.3 0 0 0-.015-.031L788.84 245a11.133 11.133 0 0 0 1.745-8.425c-1.113-5.9-6.539-9.83-12.12-8.777a10.3 10.3 0 0 0-8.1 8.412 4.736 4.736 0 0 0 2.146 9.177c.045-.008.088-.023.133-.033a10.794 10.794 0 0 0 2.695 2.415l-.267 7.316-.107 1.721a1.221 1.221 0 0 0-.012.448c.331 1.752 4.657 2.408 9.662 1.463 4.588-.866 8.146-2.774 8.452-4.436l.253-.036z" transform="translate(-749.877 -217.911)"/>
        <path id="패스_3797" d="M771.11 237.6l3.155 5.641 1.17-6.938-3.221-2.459-2.143 2.848z" transform="translate(-750.577 -219.406)"/>
        <circle id="타원_64498" cx=".571" cy=".571" r=".571" transform="translate(31.305 18.787)"/>
        <circle id="타원_64499" cx=".571" cy=".571" r=".571" transform="translate(35.475 17.321)"/>
        <path id="패스_3798" d="M789.668 239.484l2.208 2.718-1.348.964" class="cls-7" transform="translate(-755.294 -220.764)"/>
        <g id="그룹_69399" transform="translate(84.272 24.302)">
            <path id="패스_3799" d="M873.454 251.521a2.09 2.09 0 0 0 .194-2.711 1.771 1.771 0 0 0-2-.635c-1.559.314-4.608 2.4-5.441 2.994-1.541 1.1-5.219 3.244-5.219 3.244s.141-8-2.5-7.561c-2.134.351-3.1 11.807-3.1 11.807l7.067 14.435s5.2-3.251 8.311-5.331c1.947-1.3 5.6-3.82 6.325-4.494.022-.016.046-.025.068-.042a2.087 2.087 0 0 0 .449-2.775 1.788 1.788 0 0 0-1.914-.79 4.459 4.459 0 0 0 .684-.575 2.088 2.088 0 0 0 .327-2.661 1.783 1.783 0 0 0-1.963-.772c.039-.058.117-.178.211-.346a2.089 2.089 0 0 0 .327-2.661 1.775 1.775 0 0 0-2.066-.736h-.029a4.285 4.285 0 0 0 .269-.39z" class="cls-4" transform="translate(-855.386 -246.836)"/>
            <path id="선_2307" d="M7.037 0L0 4.672" class="cls-5" transform="translate(10.772 5.043)"/>
            <path id="선_2308" d="M7.043 0L0 4.506" class="cls-5" transform="translate(12.44 8.603)"/>
            <path id="선_2309" d="M7.043 0L0 4.506" class="cls-5" transform="translate(13.505 12.746)"/>
        </g>
        <path id="패스_3800" d="M836.258 261.506l-31.4 14.269-15.678-3.835a9.791 9.791 0 0 0-11.657 7.625 9.995 9.995 0 0 0 7.471 11.9l19.037 3.825a9.571 9.571 0 0 0 6.576-.879 9.826 9.826 0 0 0 .927-.426l31.824-17.189" class="cls-3" transform="translate(-752.316 -226.065)"/>
        <ellipse id="타원_64500" cx=".776" cy=".803" class="cls-7" rx=".776" ry=".803" transform="translate(33.433 24.774)"/>
        <path id="패스_3801" d="M790.94 214.859a8.229 8.229 0 0 1-3.034 1.475 2.766 2.766 0 0 0 .068-1.5 30.07 30.07 0 0 1-6.089 1.374c-.662.08-1.291.1-1.878.22-7.978 1.672-8.719 12.046-8.719 12.046l3.618 3.446a77.16 77.16 0 0 0 8.117-.795 8.826 8.826 0 0 0 6.971-4.79c1.111-1.975.946-11.476.946-11.476z" transform="translate(-750.87 -214.829)"/>
        <g id="그룹_69401" transform="translate(199.013 9.924)">
            <path id="패스_3802" d="M1045.325 242.554a23.226 23.226 0 1 1-23.225 23.226 23.226 23.226 0 0 1 23.225-23.223m0-5.736a28.961 28.961 0 1 0 28.962 28.961 28.992 28.992 0 0 0-28.962-28.964z" class="cls-9" transform="translate(-1008.878 -230.047)"/>
            <path id="사각형_2642" d="M0 0H6.788V7.146H0z" class="cls-9" transform="translate(32.16)"/>
            <path id="사각형_2643" d="M0 0H7.146V6.788H0z" class="cls-9" transform="translate(47.378 9.018) rotate(-59)"/>
            <path id="사각형_2644" d="M0 0H7.146V6.788H0z" class="cls-9" transform="matrix(0.875, -0.485, 0.485, 0.875, 59.268, 18.06)"/>
            <path id="사각형_2645" d="M0 0H6.788V7.146H0z" class="cls-9" transform="matrix(0.53, -0.848, 0.848, 0.53, 59.366, 52.881)"/>
            <path id="사각형_2646" d="M0 0H6.788V7.146H0z" class="cls-9" transform="matrix(0.485, -0.875, 0.875, 0.485, 4.089, 20.536)"/>
            <path id="사각형_2647" d="M0 0H7.146V6.788H0z" class="cls-9" transform="matrix(0.848, -0.53, 0.53, 0.848, 3.873, 50.91)"/>
            <path id="사각형_2648" d="M0 0H6.788V7.146H0z" class="cls-9" transform="translate(16.02 6.39) rotate(-31)"/>
            <path id="사각형_2649" d="M0 0H6.788V7.146H0z" class="cls-9" transform="translate(32.16 64.316)"/>
            <path id="사각형_2650" d="M0 0H6.788V7.146H0z" class="cls-9" transform="translate(47.376 62.441) rotate(-31)"/>
            <path id="사각형_2651" d="M0 0H7.146V6.788H0z" class="cls-9" transform="translate(16.019 65.068) rotate(-59)"/>
            <path id="사각형_2652" d="M0 0H8.219V6.073H0z" class="cls-9" transform="translate(0 32.872)"/>
            <path id="사각형_2653" d="M0 0H8.219V6.073H0z" class="cls-9" transform="translate(64.677 32.872)"/>
        </g>
        <path id="선_2312" d="M4.591 0L0 59.407" class="cls-8" transform="translate(46.628 100.055)"/>
    </g>
</svg>
